<svg width="183" height="183" viewBox="0 0 183 183" fill="none" xmlns="http://www.w3.org/2000/svg">
<path d="M68.625 30.5C68.625 22.0777 75.4527 15.25 83.875 15.25C92.2973 15.25 99.125 22.0777 99.125 30.5V45.75H137.25V83.875H152.5C160.922 83.875 167.75 90.7027 167.75 99.125C167.75 107.547 160.922 114.375 152.5 114.375H137.25V152.5H99.125V137.25C99.125 128.828 92.2973 122 83.875 122C75.4527 122 68.625 128.828 68.625 137.25V152.5H30.5V114.375H45.75C54.1723 114.375 61 107.547 61 99.125C61 90.7027 54.1723 83.875 45.75 83.875H30.5V45.75H68.625V30.5Z" stroke="#F2F2F2" stroke-width="3"/>
</svg>
