<svg width="158" height="158" viewBox="0 0 158 158" fill="none" xmlns="http://www.w3.org/2000/svg">
<g id="language">
<path id="Oval" fill-rule="evenodd" clip-rule="evenodd" d="M78.9998 144.833C115.359 144.833 144.833 115.359 144.833 79C144.833 42.6412 115.359 13.1666 78.9998 13.1666C42.6411 13.1666 13.1665 42.6412 13.1665 79C13.1665 115.359 42.6411 144.833 78.9998 144.833Z" stroke="#F2F2F2" stroke-width="3"/>
<path id="Oval_2" fill-rule="evenodd" clip-rule="evenodd" d="M78.9998 138.25C78.9998 138.25 105.333 116.705 105.333 79C105.333 41.2955 78.9998 19.75 78.9998 19.75C78.9998 19.75 52.6665 41.2955 52.6665 79C52.6665 116.705 78.9998 138.25 78.9998 138.25Z" stroke="#F2F2F2" stroke-width="3"/>
<path id="Line" d="M16.4582 59.25H141.542" stroke="#F2F2F2" stroke-width="3" stroke-linecap="round"/>
<path id="Line_2" d="M16.4582 98.75H141.542" stroke="#F2F2F2" stroke-width="3" stroke-linecap="round"/>
</g>
</svg>
